# AST/ASF file generated using VICON BodyLanguage
# -----------------------------------------------
:version 1.10
:name VICON
:units
  mass 1.0
  length 0.45
  angle deg
:documentation
   .ast/.asf automatically generated from VICON data using
   VICON BodyBuilder and BodyLanguage model FoxedUp or BRILLIANT.MOD
:root
   order TX TY TZ RX RY RZ
   axis XYZ
   position 0 0 0  
   orientation 0 0 0 
:bonedata
  begin
     id 1 
     name lhipjoint
     direction 0.521689 -0.742065 0.420928 
     length 2.47002 
     axis 0 0 0  XYZ
  end
  begin
     id 2 
     name lfemur
     direction 0.34202 -0.939693 0  
     length 7.24654  
     axis 0 0 20  XYZ
    dof rx ry rz
    limits (-160.0 20.0)
           (-70.0 70.0)
           (-60.0 70.0)
  end
  begin
     id 3 
     name ltibia
     direction 0.34202 -0.939693 0   
     length 8.04849   
     axis 0 0 20   XYZ
    dof rx
    limits (-10.0 170.0)
  end
  begin
     id 4 
     name lfoot
     direction 0.0745411 -0.2048 0.975961   
     length 1.72367   
     axis -90 7.62852e-016 20   XYZ
    dof rx rz
    limits (-45.0 90.0)
           (-70.0 20.0)
  end
  begin
     id 5 
     name ltoes
     direction 1.53556e-011 -4.21901e-011 1   
     length 0.87311   
     axis -90 7.62852e-016 20   XYZ
    dof rx
    limits (-90.0 20.0)
  end
  begin
     id 6 
     name rhipjoint
     direction -0.52849 -0.738415 0.418857   
     length 2.48223  
     axis 0 0 0  XYZ 
  end
  begin
     id 7 
     name rfemur
     direction -0.34202 -0.939693 0   
     length 7.15571   
     axis 0 0 -20   XYZ
    dof rx ry rz
    limits (-160.0 20.0)
           (-70.0 70.0)
           (-70.0 60.0)
  end
  begin
     id 8 
     name rtibia
     direction -0.34202 -0.939693 0   
     length 7.81659   
     axis 0 0 -20   XYZ
    dof rx
    limits (-10.0 170.0)
 end
 begin
     id 9 
     name rfoot
     direction -0.0917348 -0.252039 0.963359   
     length 1.84382  
     axis -90 -7.62852e-016 -20   XYZ
    dof rx rz
    limits (-45.0 90.0)
           (-20.0 70.0)
  end
  begin
     id 10 
     name rtoes
     direction -1.53551e-011 -4.21879e-011 1   
     length 0.927771   
     axis -90 -7.62852e-016 -20   XYZ
    dof rx
    limits (-90.0 20.0)
  end
  begin
     id 11 
     name lowerback
     direction 0.00583058 0.999822 0.0179296   
     length 2.1429   
     axis 0 0 0   XYZ
    dof rx ry rz
    limits (-20.0 45.0)
           (-30.0 30.0)
           (-30.0 30.0)
  end
  begin
     id 12 
     name upperback
     direction -0.0137999 0.999752 -0.0175071   
     length 2.14252   
     axis 0 0 0   XYZ
    dof rx ry rz
    limits (-20.0 45.0)
           (-30.0 30.0)
           (-30.0 30.0)
  end
  begin
     id 13 
     name thorax
     direction -0.0158036 0.99955 -0.0254909   
     length 2.1383   
     axis 0 0 0   XYZ
    dof rx ry rz
    limits (-20.0 45.0)
           (-30.0 30.0)
           (-30.0 30.0)
  end
  begin
     id 14 
     name lowerneck
     direction -0.0101179 0.999403 -0.0330262   
     length 1.65808   
     axis 0 0 0   XYZ
    dof rx ry rz
    limits (-20.0 45.0)
           (-30.0 30.0)
           (-30.0 30.0)
  end
  begin
     id 15 
     name upperneck
     direction 0.0497734 0.995978 -0.074501   
     length 1.5897   
     axis 0 0 0   XYZ
    dof rx ry rz
    limits (-20.0 45.0)
           (-30.0 30.0)
           (-30.0 30.0)
  end
  begin
     id 16
     name head
     direction 0.0189524 0.999519 -0.0245438  
     length 1.74024  
     axis 0 0 0   XYZ
    dof rx ry rz
    limits (-20.0 45.0)
           (-30.0 30.0)
           (-30.0 30.0)
  end
  begin
     id 17 
     name lclavicle
     direction 0.945604 0.324422 0.0241537  
     length 3.59089  
     axis 0 0 0   XYZ
    dof ry rz
    limits (-20.0 10.0)
           (0.0 20.0)
  end
  begin
     id 18 
     name lhumerus
     direction 1 -4.48964e-011 -2.63524e-027   
     length 5.2391   
     axis 180 -30 -90   XYZ
    dof rx ry rz
    limits (-60.0 90.0)
           (-90.0 90.0)
           (-90.0 90.0)
  end
  begin
     id 19
     name lradius
     direction 1 -4.48969e-011 3.86978e-028   
     length 3.31467   
     axis 180 -30 -90   XYZ
    dof rx
    limits (-10.0 170.0)
  end
  begin
     id 20
     name lwrist
     direction 1 -4.48963e-011 7.20928e-028   
     length 1.65734   
     axis -5.52449e-016 90 90   XYZ
    dof ry
    limits (-180.0 0.0)
 end
  begin
     id 21 
     name lhand
     direction 1 -4.48964e-011 1.44186e-027   
     length 0.9659   
     axis -9.20027e-016 90 90   XYZ
    dof rx rz
    limits (-90.0 90.0)
           (-45.0 45.0)
  end
  begin
     id 22 
     name lfingers
     direction 1 -4.48965e-011 2.88371e-027   
     length 0.778733   
     axis -1.84005e-015 90 90   XYZ
    dof rx
    limits (0.0 90.0)
  end
  begin
     id 23
     name lthumb
     direction 0.707107 -6.34931e-011 0.707107   
     length 1.11811   
     axis -90 45 2.85299e-015   XYZ
    dof rx rz
    limits (-45.0 45.0)
           (-45.0 45.0)
  end
  begin
     id 24 
     name rclavicle
     direction -0.923762 0.370785 0.0958234   
     length 3.54196  
     axis 0 0 0   XYZ 
    dof ry rz
    limits (-10.0 20.0)
           (-20.0 0.0)
  end
  begin
     id 25 
     name rhumerus
     direction -1 -4.48966e-011 1.18702e-017  
     length 5.30252   
     axis 180 30 90   XYZ
    dof rx ry rz
    limits (-90.0 60.0)
           (-90.0 90.0)
           (-90.0 90.0)
  end
  begin
     id 26 
     name rradius
     direction -1 -4.48966e-011 4.46736e-027   
     length 3.67875   
     axis 180 30 90   XYZ
    dof rx
    limits (-10.0 170.0)
  end
  begin
     id 27 
     name rwrist
     direction -1 -4.48966e-011 7.20928e-028   
     length 1.83937   
     axis -5.52449e-016 -90 -90   XYZ
    dof ry
    limits (-180.0 0.0)
  end
  begin
     id 28
     name rhand
     direction -1 -4.48973e-011 1.44186e-027   
     length 0.594811   
     axis -9.20027e-016 -90 -90   XYZ
    dof rx rz
    limits (-90.0 90.0)
           (-45.0 45.0)
  end
  begin
     id 29
     name rfingers
     direction -1 -4.48963e-011 2.88371e-027   
     length 0.479552   
     axis -1.84005e-015 -90 -90   XYZ
    dof rx
    limits (0.0 90.0)
  end
  begin
     id 30
     name rthumb
     direction -0.707107 -6.34932e-011 0.707107   
     length 0.688544   
     axis -90 -45 -2.85299e-015   XYZ
    dof rx rz
    limits (-45.0 45.0)
           (-45.0 45.0)
  end
:hierarchy
  begin
    root lhipjoint rhipjoint lowerback
    lhipjoint lfemur
    lfemur ltibia
    ltibia lfoot
    lfoot ltoes
    rhipjoint rfemur
    rfemur rtibia
    rtibia rfoot
    rfoot rtoes
    lowerback upperback
    upperback thorax
    thorax lowerneck lclavicle rclavicle
    lowerneck upperneck
    upperneck head
    lclavicle lhumerus
    lhumerus lradius
    lradius lwrist
    lwrist lhand lthumb
    lhand lfingers
    rclavicle rhumerus
    rhumerus rradius
    rradius rwrist
    rwrist rhand rthumb
    rhand rfingers
  end

#!OML:ASF E:\acrobat2\Project_11_07_03\Capture day 1\Session 1\Acrobat.ASF
:FULLY-SPECIFIED
:DEGREES
394
root 6.15005 26.9739 -6.15851 1.30239 3.19486 3.89682
lowerback 8.85554 0.662047 3.68137
upperback 2.58229 1.22901 0.884517
thorax -2.22688 0.60663 -1.28406
lowerneck 0.663509 -3.64464 0.42602
upperneck 19.9188 -4.8202 -0.825092
head 5.87871 -2.33948 -0.559204
rclavicle -5.96354e-015 6.36111e-015
rhumerus -28.0597 -7.84387 -76.4708
rradius 52.1657
rwrist 6.63467
rhand -13.7643 -13.3079
rfingers 7.12502
rthumb 12.3564 -42.9228
lclavicle -5.96354e-015 6.36111e-015
lhumerus -19.8431 -11.1577 71.0135
lradius 41.6992
lwrist -3.60101
lhand -18.9195 -33.3147
lfingers 7.12502
lthumb 7.38284 -3.4635
rfemur -20.8956 -7.94518 15.8703
rtibia 24.178
rfoot -24.7218 -9.3483
rtoes -24.2951
lfemur -32.7886 0.380703 -20.8766
ltibia 30.6926
lfoot 361.394 -12.2076
ltoes 27.2773
395
root 6.14261 26.9932 -6.02254 1.25194 3.53731 3.63528
lowerback 8.82254 0.680221 4.0575
upperback 2.43661 1.29322 1.02355
thorax -2.35076 0.633682 -1.35873
lowerneck 0.762665 -3.73969 0.45979
upperneck 19.9044 -4.94348 -0.855644
head 5.8551 -2.39809 -0.577597
rclavicle -5.96354e-015 0
rhumerus -29.4372 -8.25168 -76.3294
rradius 51.3774
rwrist 6.79889
rhand -14.0887 -13.1981
rfingers 7.12502
rthumb 12.0436 -42.8316
lclavicle -5.96354e-015 0
lhumerus -20.433 -10.3431 71.4353
lradius 41.1546
lwrist -3.38489
lhand -18.8754 -32.8137
lfingers 7.12502
lthumb 7.4254 -2.96398
rfemur -20.8112 -8.07843 16.1374
rtibia 24.1944
rfoot -24.3697 -9.6048
rtoes -24.1311
lfemur -32.844 0.794781 -20.5523
ltibia 31.0258
lfoot 362.204 -12.9395
ltoes 28.6257
396
root 6.13765 27.0171 -5.88722 1.22034 3.77298 3.35608
lowerback 8.75238 0.697408 4.43983
upperback 2.30983 1.354 1.1485
thorax -2.43374 0.659373 -1.45001
lowerneck 0.809329 -3.77694 0.522524
upperneck 19.8701 -4.98599 -0.912542
head 5.83288 -2.41772 -0.606124
rclavicle -9.34288e-015 -2.38542e-014
rhumerus -30.6941 -8.56064 -76.2438
rradius 50.5467
rwrist 7.0551
rhand -14.3328 -13.1507
rfingers 7.12502
rthumb 11.8082 -42.7978
lclavicle -9.34288e-015 -2.38542e-014
lhumerus -21.0615 -9.42833 71.7616
lradius 40.6331
lwrist -2.90555
lhand -19.0007 -32.1728
lfingers 7.12502
lthumb 7.30446 -2.31891
rfemur -20.812 -8.23326 16.4091
rtibia 24.3188
rfoot -23.9699 -9.74372
rtoes -23.5832
lfemur -32.8782 1.13448 -20.1824
ltibia 31.3971
lfoot 362.827 -13.5251
ltoes 29.5007
397
root 6.13425 27.0458 -5.75152 1.20374 3.92373 3.12251
lowerback 8.6369 0.715856 4.75467
upperback 2.21107 1.40582 1.2445
thorax -2.46359 0.681909 -1.53112
lowerneck 0.7647 -3.78435 0.479859
upperneck 19.9058 -5.01737 -0.775383
head 5.85658 -2.42604 -0.559041
rclavicle 1.25234e-014 3.49861e-014
rhumerus -31.7823 -8.81339 -76.2082
rradius 49.6057
rwrist 7.42778
rhand -14.4386 -13.1585
rfingers 7.12502
rthumb 11.7062 -42.8115
lclavicle 1.25234e-014 3.49861e-014
lhumerus -21.7125 -8.42605 71.9972
lradius 40.1279
lwrist -2.2036
lhand -19.3 -31.3993
lfingers 7.12502
lthumb 7.01556 -1.53554
rfemur -20.8209 -8.375 16.5998
rtibia 24.4422
rfoot -23.5218 -9.81326
rtoes -22.8087
lfemur -32.8714 1.3722 -19.8423
ltibia 31.8271
lfoot 363.148 -13.9815
ltoes 29.8646
398
root 6.13123 27.079 -5.6152 1.18679 4.02477 2.97985
lowerback 8.49027 0.726788 4.94169
upperback 2.1423 1.4319 1.30631
thorax -2.44877 0.693442 -1.57234
lowerneck 0.765817 -3.79386 0.407
upperneck 19.8737 -5.05962 -0.579577
head 5.85355 -2.43863 -0.487107
rclavicle 8.34896e-015 2.70347e-014
rhumerus -32.7058 -9.00636 -76.2159
rradius 48.5394
rwrist 7.90338
rhand -14.3777 -13.1917
rfingers 7.12502
rthumb 11.7649 -42.8413
lclavicle 8.34896e-015 2.70347e-014
lhumerus -22.392 -7.33761 72.1499
lradius 39.6312
lwrist -1.31782
lhand -19.7561 -30.5038
lfingers 7.12502
lthumb 6.57531 -0.625844
rfemur -20.7653 -8.46746 16.6459
rtibia 24.4692
rfoot -23.0209 -9.89848
rtoes -22.0191
lfemur -32.7994 1.49224 -19.59
ltibia 32.3332
lfoot 363.119 -14.3209
ltoes 29.8383
